<mxfile host="app.diagrams.net" modified="2024-02-07T03:26:58.748Z" agent="Mozilla/5.0 (Windows NT 10.0; Win64; x64) AppleWebKit/537.36 (KHTML, like Gecko) Chrome/121.0.0.0 Safari/537.36 Edg/121.0.0.0" etag="pd7_ufzcFkqq-v6VmWSZ" version="23.1.1" type="github">
  <diagram name="Page-1" id="UytFIJBBEG694bEX4Fh9">
    <mxGraphModel dx="795" dy="608" grid="1" gridSize="10" guides="1" tooltips="1" connect="1" arrows="1" fold="1" page="1" pageScale="1" pageWidth="850" pageHeight="1100" math="0" shadow="0">
      <root>
        <mxCell id="0" />
        <mxCell id="1" parent="0" />
        <mxCell id="eUEfTirzM8Af57HB3OFG-2" value="" style="edgeStyle=orthogonalEdgeStyle;rounded=0;orthogonalLoop=1;jettySize=auto;html=1;" edge="1" parent="1" source="pSNilD8N5I2ruYLXZMeT-3" target="pSNilD8N5I2ruYLXZMeT-5">
          <mxGeometry relative="1" as="geometry" />
        </mxCell>
        <mxCell id="pSNilD8N5I2ruYLXZMeT-3" value="" style="image;html=1;image=img/lib/clip_art/computers/Server_128x128.png" parent="1" vertex="1">
          <mxGeometry x="243" y="324" width="80" height="80" as="geometry" />
        </mxCell>
        <mxCell id="pSNilD8N5I2ruYLXZMeT-4" value="" style="image;aspect=fixed;perimeter=ellipsePerimeter;html=1;align=center;shadow=0;dashed=0;spacingTop=3;image=img/lib/active_directory/database_server.svg;" parent="1" vertex="1">
          <mxGeometry x="510" y="580" width="41" height="50" as="geometry" />
        </mxCell>
        <mxCell id="eUEfTirzM8Af57HB3OFG-4" value="" style="edgeStyle=orthogonalEdgeStyle;rounded=0;orthogonalLoop=1;jettySize=auto;html=1;" edge="1" parent="1" source="pSNilD8N5I2ruYLXZMeT-5" target="eUEfTirzM8Af57HB3OFG-3">
          <mxGeometry relative="1" as="geometry" />
        </mxCell>
        <mxCell id="pSNilD8N5I2ruYLXZMeT-5" value="" style="image;aspect=fixed;perimeter=ellipsePerimeter;html=1;align=center;shadow=0;dashed=0;spacingTop=3;image=img/lib/active_directory/web_server.svg;" parent="1" vertex="1">
          <mxGeometry x="263" y="450" width="40" height="50" as="geometry" />
        </mxCell>
        <mxCell id="pSNilD8N5I2ruYLXZMeT-6" value="" style="sketch=0;aspect=fixed;pointerEvents=1;shadow=0;dashed=0;html=1;strokeColor=none;labelPosition=center;verticalLabelPosition=bottom;verticalAlign=top;align=center;fillColor=#00188D;shape=mxgraph.mscae.enterprise.application_server" parent="1" vertex="1">
          <mxGeometry x="70" y="450" width="43" height="50" as="geometry" />
        </mxCell>
        <mxCell id="pSNilD8N5I2ruYLXZMeT-7" value="" style="verticalLabelPosition=bottom;html=1;verticalAlign=top;align=center;strokeColor=none;fillColor=#00BEF2;shape=mxgraph.azure.mysql_database;" parent="1" vertex="1">
          <mxGeometry x="150" y="603.5" width="57.5" height="70" as="geometry" />
        </mxCell>
        <mxCell id="pSNilD8N5I2ruYLXZMeT-8" value="" style="verticalLabelPosition=bottom;sketch=0;aspect=fixed;html=1;verticalAlign=top;strokeColor=none;align=center;outlineConnect=0;shape=mxgraph.citrix.dns_server;" parent="1" vertex="1">
          <mxGeometry x="323" y="210" width="76.5" height="92.5" as="geometry" />
        </mxCell>
        <mxCell id="8-D-bgn7aszmPkUvuUCa-1" value="" style="verticalLabelPosition=bottom;sketch=0;aspect=fixed;html=1;verticalAlign=top;strokeColor=none;align=center;outlineConnect=0;shape=mxgraph.citrix.laptop_1;fontSize=16;" parent="1" vertex="1">
          <mxGeometry x="59" y="153" width="91" height="77" as="geometry" />
        </mxCell>
        <mxCell id="eUEfTirzM8Af57HB3OFG-7" value="" style="edgeStyle=orthogonalEdgeStyle;rounded=0;orthogonalLoop=1;jettySize=auto;html=1;" edge="1" parent="1" source="eUEfTirzM8Af57HB3OFG-3" target="eUEfTirzM8Af57HB3OFG-6">
          <mxGeometry relative="1" as="geometry" />
        </mxCell>
        <mxCell id="eUEfTirzM8Af57HB3OFG-3" value="" style="sketch=0;aspect=fixed;pointerEvents=1;shadow=0;dashed=0;html=1;strokeColor=none;labelPosition=center;verticalLabelPosition=bottom;verticalAlign=top;align=center;fillColor=#00188D;shape=mxgraph.mscae.enterprise.application_server2" vertex="1" parent="1">
          <mxGeometry x="370" y="450" width="43" height="50" as="geometry" />
        </mxCell>
        <mxCell id="eUEfTirzM8Af57HB3OFG-8" value="" style="edgeStyle=orthogonalEdgeStyle;rounded=0;orthogonalLoop=1;jettySize=auto;html=1;" edge="1" parent="1" source="eUEfTirzM8Af57HB3OFG-6" target="pSNilD8N5I2ruYLXZMeT-7">
          <mxGeometry relative="1" as="geometry" />
        </mxCell>
        <mxCell id="eUEfTirzM8Af57HB3OFG-6" value="" style="sketch=0;html=1;aspect=fixed;strokeColor=none;shadow=0;fillColor=#3B8DF1;verticalAlign=top;labelPosition=center;verticalLabelPosition=bottom;shape=mxgraph.gcp2.files" vertex="1" parent="1">
          <mxGeometry x="290" y="590" width="100" height="97" as="geometry" />
        </mxCell>
      </root>
    </mxGraphModel>
  </diagram>
</mxfile>
